<svg version="1.1" id="Layer_1" xmlns="http://www.w3.org/2000/svg" xmlns:xlink="http://www.w3.org/1999/xlink" x="0px" y="0px"
	 width="100%" viewBox="0 0 333 181" enable-background="new 0 0 333 181" xml:space="preserve">
<path fill="#000000" opacity="1.000000" stroke="none" 
	d="
M195.000000,182.000000 
	C130.000015,182.000000 65.500015,182.000000 1.000017,182.000000 
	C1.000012,121.666679 1.000012,61.333363 1.000006,1.000034 
	C111.999969,1.000022 222.999939,1.000022 333.999939,1.000011 
	C333.999939,61.333298 333.999939,121.666595 333.999969,181.999939 
	C287.833344,182.000000 241.666672,182.000000 195.000000,182.000000 
M238.184509,106.208450 
	C247.504456,126.418121 263.731628,132.564911 284.674225,128.598450 
	C285.077057,135.392334 282.345154,139.308167 276.266907,141.145798 
	C268.336853,143.543243 264.170959,150.137070 266.098846,157.239914 
	C268.034546,164.371750 274.784882,167.645844 282.861145,166.200806 
	C297.745209,163.537750 311.802673,145.196136 311.048340,130.688416 
	C310.374420,117.726959 310.754028,104.700912 310.936005,91.707115 
	C311.192657,73.386147 294.493622,56.086796 275.254852,55.005116 
	C249.787277,53.573219 227.235138,80.158363 238.184509,106.208450 
M77.952011,127.745720 
	C92.048637,130.922333 104.098305,127.364319 114.310646,117.072014 
	C135.159714,96.059738 122.999458,64.980438 100.683899,56.821182 
	C92.292076,53.752876 84.026108,53.247837 74.906334,56.075226 
	C74.906334,51.010513 74.949570,46.713173 74.895874,42.417049 
	C74.821533,36.469639 71.673531,32.326492 66.480209,30.102449 
	C58.513123,26.690546 49.207066,33.629345 49.136173,42.918755 
	C49.020611,58.061592 49.594883,73.227119 48.953163,88.343803 
	C48.258266,104.713127 59.324249,123.345917 77.952011,127.745720 
M158.050568,83.786713 
	C156.004272,91.175865 156.062775,99.102592 159.583572,105.362953 
	C163.926834,113.085732 162.781158,119.413147 159.252625,126.382896 
	C158.717255,127.440407 158.706131,128.763321 158.255615,130.895309 
	C160.220322,130.463531 161.643234,130.158615 163.062500,129.837524 
	C168.253357,128.663162 172.654388,124.288940 178.789459,126.869888 
	C185.941971,129.878860 193.318787,130.687241 201.244873,129.157440 
	C222.767609,125.003365 235.674408,104.855698 230.631668,83.675644 
	C225.156708,60.680183 203.874771,50.158112 182.223312,56.948727 
	C169.211578,61.029644 162.014999,70.444473 158.050568,83.786713 
M153.959518,71.500031 
	C153.947510,62.005497 154.093216,52.507317 153.873505,43.017590 
	C153.698471,35.457909 147.733093,29.183788 141.100998,29.057138 
	C134.786301,28.936550 128.281937,35.182316 128.213974,42.443172 
	C127.986427,66.759956 128.057693,91.080177 128.134033,115.398705 
	C128.152542,121.296509 131.459320,125.236679 136.654480,127.687004 
	C141.802521,130.115082 146.611526,128.315765 149.726242,124.626945 
	C152.147949,121.758842 153.658310,117.288483 153.789474,113.468971 
	C154.257980,99.826790 153.965790,86.158478 153.959518,71.500031 
M44.451466,110.381493 
	C43.691437,109.503929 42.983685,108.573753 42.162468,107.757767 
	C38.285145,103.905128 32.834145,102.915535 28.014977,105.144569 
	C24.359039,106.835564 20.914988,112.525192 21.141947,116.498909 
	C21.467512,122.199165 24.582281,125.999542 29.815783,128.027451 
	C34.697098,129.918884 38.660133,128.527863 42.073544,125.205208 
	C46.165905,121.221657 47.046104,116.397430 44.451466,110.381493 
z"/>
<path fill="#434E44" opacity="1.000000" stroke="none" 
	d="
M238.038849,105.844910 
	C227.235138,80.158363 249.787277,53.573219 275.254852,55.005116 
	C294.493622,56.086796 311.192657,73.386147 310.936005,91.707115 
	C310.754028,104.700912 310.374420,117.726959 311.048340,130.688416 
	C311.802673,145.196136 297.745209,163.537750 282.861145,166.200806 
	C274.784882,167.645844 268.034546,164.371750 266.098846,157.239914 
	C264.170959,150.137070 268.336853,143.543243 276.266907,141.145798 
	C282.345154,139.308167 285.077057,135.392334 284.674225,128.598450 
	C263.731628,132.564911 247.504456,126.418121 238.038849,105.844910 
M269.536438,81.841499 
	C263.322052,83.951477 259.934174,89.964706 261.740784,95.678192 
	C263.715851,101.924423 270.147095,105.826508 275.796417,104.206268 
	C281.853241,102.469162 286.059662,96.228996 284.851227,90.764992 
	C283.730408,85.696854 278.094116,79.455711 269.536438,81.841499 
z"/>
<path fill="#424E44" opacity="1.000000" stroke="none" 
	d="
M77.566391,127.601837 
	C59.324249,123.345917 48.258266,104.713127 48.953163,88.343803 
	C49.594883,73.227119 49.020611,58.061592 49.136173,42.918755 
	C49.207066,33.629345 58.513123,26.690546 66.480209,30.102449 
	C71.673531,32.326492 74.821533,36.469639 74.895874,42.417049 
	C74.949570,46.713173 74.906334,51.010513 74.906334,56.075226 
	C84.026108,53.247837 92.292076,53.752876 100.683899,56.821182 
	C122.999458,64.980438 135.159714,96.059738 114.310646,117.072014 
	C104.098305,127.364319 92.048637,130.922333 77.566391,127.601837 
M74.979019,91.524498 
	C75.560585,93.228775 76.084267,94.955498 76.734810,96.633026 
	C78.518631,101.232826 82.145454,102.929573 86.833145,103.071487 
	C91.840569,103.223076 95.504242,100.902222 97.664017,96.658081 
	C99.947533,92.170761 99.425194,87.670090 95.919159,83.833565 
	C88.859131,76.108009 78.997063,79.381096 74.979019,91.524498 
z"/>
<path fill="#9DD4C9" opacity="1.000000" stroke="none" 
	d="
M158.072388,83.360138 
	C162.014999,70.444473 169.211578,61.029644 182.223312,56.948727 
	C203.874771,50.158112 225.156708,60.680183 230.631668,83.675644 
	C235.674408,104.855698 222.767609,125.003365 201.244873,129.157440 
	C193.318787,130.687241 185.941971,129.878860 178.789459,126.869888 
	C172.654388,124.288940 168.253357,128.663162 163.062500,129.837524 
	C161.643234,130.158615 160.220322,130.463531 158.255615,130.895309 
	C158.706131,128.763321 158.717255,127.440407 159.252625,126.382896 
	C162.781158,119.413147 163.926834,113.085732 159.583572,105.362953 
	C156.062775,99.102592 156.004272,91.175865 158.072388,83.360138 
z"/>
<path fill="#424D44" opacity="1.000000" stroke="none" 
	d="
M153.960480,72.000046 
	C153.965790,86.158478 154.257980,99.826790 153.789474,113.468971 
	C153.658310,117.288483 152.147949,121.758842 149.726242,124.626945 
	C146.611526,128.315765 141.802521,130.115082 136.654480,127.687004 
	C131.459320,125.236679 128.152542,121.296509 128.134033,115.398705 
	C128.057693,91.080177 127.986427,66.759956 128.213974,42.443172 
	C128.281937,35.182316 134.786301,28.936550 141.100998,29.057138 
	C147.733093,29.183788 153.698471,35.457909 153.873505,43.017590 
	C154.093216,52.507317 153.947510,62.005497 153.960480,72.000046 
z"/>
<path fill="#414B42" opacity="1.000000" stroke="none" 
	d="
M44.615978,110.731789 
	C47.046104,116.397430 46.165905,121.221657 42.073544,125.205208 
	C38.660133,128.527863 34.697098,129.918884 29.815783,128.027451 
	C24.582281,125.999542 21.467512,122.199165 21.141947,116.498909 
	C20.914988,112.525192 24.359039,106.835564 28.014977,105.144569 
	C32.834145,102.915535 38.285145,103.905128 42.162468,107.757767 
	C42.983685,108.573753 43.691437,109.503929 44.615978,110.731789 
z"/>
<path fill="#000000" opacity="1.000000" stroke="none" 
	d="
M269.925781,81.758377 
	C278.094116,79.455711 283.730408,85.696854 284.851227,90.764992 
	C286.059662,96.228996 281.853241,102.469162 275.796417,104.206268 
	C270.147095,105.826508 263.715851,101.924423 261.740784,95.678192 
	C259.934174,89.964706 263.322052,83.951477 269.925781,81.758377 
z"/>
<path fill="#000000" opacity="1.000000" stroke="none" 
	d="
M74.991379,91.131653 
	C78.997063,79.381096 88.859131,76.108009 95.919159,83.833565 
	C99.425194,87.670090 99.947533,92.170761 97.664017,96.658081 
	C95.504242,100.902222 91.840569,103.223076 86.833145,103.071487 
	C82.145454,102.929573 78.518631,101.232826 76.734810,96.633026 
	C76.084267,94.955498 75.560585,93.228775 74.991379,91.131653 
z"/>
</svg>